<svg xmlns="http://www.w3.org/2000/svg" viewBox="0 0 560.363 62.291"><path d="M555.42 37.944c.829 0 1.64.265 2.43.795.793.528 1.41 1.285 1.85 2.272.442.984.663 2.01.663 3.08a7.437 7.437 0 0 1-.653 3.054c-.435.978-1.045 1.735-1.829 2.274-.785.542-1.606.811-2.462.811-.855 0-1.678-.269-2.462-.81-.785-.539-1.395-1.297-1.833-2.275a7.41 7.41 0 0 1-.654-3.053c0-1.07.22-2.097.664-3.081.443-.987 1.06-1.744 1.853-2.272.79-.53 1.6-.795 2.432-.795zm0 1.019c-.696 0-1.37.221-2.028.663-.659.443-1.172 1.075-1.543 1.897a6.176 6.176 0 0 0-.01 5.112c.364.811.873 1.443 1.53 1.897.654.452 1.339.678 2.051.678.712 0 1.395-.226 2.052-.678.654-.454 1.164-1.085 1.527-1.897.362-.813.544-1.66.544-2.543a6.2 6.2 0 0 0-.556-2.569c-.368-.822-.882-1.453-1.542-1.897-.661-.442-1.336-.663-2.026-.663zm-2.172 8.524v-6.614h1.834c.626 0 1.082.06 1.36.18.281.123.504.339.671.642.168.301.251.626.251.97 0 .48-.14.9-.42 1.26a1.54 1.54 0 0 1-1.113.602c.187.097.339.215.452.35.216.259.478.698.789 1.311l.65 1.299h-1.05l-.473-1.044c-.373-.82-.673-1.335-.9-1.541-.158-.153-.387-.226-.691-.224h-.504v2.81h-.856zm.857-3.718h1.049c.502 0 .845-.093 1.027-.278.183-.185.275-.431.275-.734 0-.194-.044-.368-.132-.526a.829.829 0 0 0-.366-.345c-.156-.075-.446-.115-.87-.115h-.982v1.998z"/><path fill="none" d="M305.585 10.137h23.49v9.684h-23.49zm-50.149 0h23.488v9.684h-23.488z"/><path d="M176.83 39.637h-21.95l-7.457 10.08V50h26.903c4.083 0 6.423-.526 8.112-1.8 2.889-2.252 3.65-5.178 3.65-14.113V.044l-9.216.023zm19.463 10.362h40.913V39.493H205.06v-9.99h22.992l7.279-9.913h-30.27v-9.525h32.145V0h-40.913zM274.079 0h-27.903v49.998h9.313V29.956h20.385c5.227 0 7.026-.298 8.495-1.355 2.507-1.952 3.703-6.454 3.703-14.262 0-3.303-.543-6.456-1.58-9.236C285.079 1.355 281.756 0 274.079 0zm4.844 19.82h-23.488v-9.683h23.488zM324.23 0h-27.901v49.998h9.313V29.956h20.386c5.224 0 7.022-.298 8.492-1.355 2.508-1.952 3.705-6.454 3.705-14.262 0-3.303-.547-6.456-1.58-9.236C335.227 1.355 331.907 0 324.23 0zm4.845 19.82h-23.49v-9.683h23.49zm98.313 0h-22.893v-9.308h32.313V.002h-26.755c-11.328 0-14.323 3.155-14.323 15.089 0 7.135 1.251 11.407 3.868 13.666 1.307 1.125 3.592 1.572 7.568 1.572h21.909v9.758H396.33v9.912h27.301c7.46 0 8.657-.149 10.674-1.651 2.722-1.955 3.486-5.105 3.486-14.262 0-4.427-.328-7.208-1.091-9.085-1.36-3.378-4.628-5.18-9.312-5.18zm69.951 30.179h9.257V11.79L530.356 50h14.27V0h-9.31v39.036L510.9 0h-13.561zm-151.278 0h40.913V39.493h-32.145v-9.99h22.992l7.274-9.913H354.83v-9.525h32.145V0H346.06zm100.773 0h40.915V39.493h-32.146v-9.99h22.992l7.277-9.913h-30.27v-9.525h32.147V0h-40.915z"/><path d="M78.234 29.775c-1.283-.382-2.71-.775-4.063-1.168l-56.175.033s10.039 2.251 22.975 5.41c11.818 2.879 26.053 6.52 37.263 9.88 23.498 7.05 40.897 18.361 40.897 18.361l23.845-33.731-10.01.004-13.835 19.569s-17.399-11.301-40.897-18.358z" fill="#bfbfbf"/><path fill="#8c8c8c" d="M132.966 14.416l-10.01 14.157 10.01-.006 10.01-14.157zm-54.732 1.209c-1.289-.389-2.72-.787-4.077-1.176l-65.16.034s19.973 2.465 33.755 5.844c10.065 2.47 21.528 5.428 31.419 8.282l35.511-.027c-7.355-3.87-18.46-9.062-31.448-12.957z"/><path d="M119.13 33.982s-3.499-2.272-9.448-5.4l-35.511.027c1.353.39 2.78.785 4.063 1.167 23.498 7.056 40.897 18.359 40.897 18.359l13.835-19.568-10.01.007z" fill="#545454"/><path d="M142.976.257L0 .33s29.223 2.52 43.237 5.965c9.943 2.438 21.192 5.34 30.92 8.154l58.81-.033z" fill="#005daa"/><path d="M109.682 28.581l13.274-.008 10.01-14.158-58.809.033c1.359.39 2.788.788 4.077 1.176 12.987 3.896 24.093 9.089 31.448 12.957z" fill="#003369"/><path d="M119.13 33.982l3.826-5.408-13.274.008c5.95 3.128 9.449 5.4 9.449 5.4z" fill="#002454"/></svg>
